<svg xmlns="http://www.w3.org/2000/svg" width="258.85" height="58.248" viewBox="0 0 258.85 58.248">
  <g id="LOGO_2018_GE" transform="translate(-215.819 -253.015)">
    <path id="Path_1" data-name="Path 1" d="M244.616,253.015a47.767,47.767,0,0,0-28.8,9.595v48h57.593v-48a47.768,47.768,0,0,0-28.8-9.595m19.2,47.994h-38.4V267.751a38.439,38.439,0,0,1,38.4,0Z" transform="translate(0)" fill="#00bd70"/>
    <path id="Path_2" data-name="Path 2" d="M442.253,266.69c-6.238,0-12.977,2-12.977,9.233v29.614c0,6.238,3.826,9.732,10.315,9.732H453.65v-6.988H439.924c-2.079,0-3.161-.915-3.161-3V297.3c1.747,1.165,3.661,1.747,6.9,1.747,4.575,0,11.563-1.913,11.563-9.233V275.923c0-7.318-6.988-9.233-12.977-9.233m5.49,21.712c0,3.327-1.913,3.743-5.49,3.743-3.327,0-5.49-.249-5.49-3.743V277.338c0-3.493,2.163-3.743,5.49-3.743,3.577,0,5.49.416,5.49,3.743Z" transform="translate(-74.227 -4.755)" fill="#fff"/>
    <path id="Path_3" data-name="Path 3" d="M351.331,277.694a12.847,12.847,0,0,1-2.163-6.737v-3.244h-7.487v3.576a18.07,18.07,0,0,0,3.244,9.983l3.993,6.572a15.788,15.788,0,0,1,2.163,8.235v9.65c0,3.411-2.247,3.743-5.324,3.743-2.911,0-4.824-.415-4.824-3.743V291.668h-7.487v15.472c0,7.32,6.988,9.233,12.062,9.233,6.238,0,12.976-2,12.976-9.233V295.579A21.97,21.97,0,0,0,355.49,284.6Z" transform="translate(-40.904 -5.111)" fill="#fff"/>
    <path id="Path_4" data-name="Path 4" d="M393.281,266.691c-5.823,0-12.561,2-12.561,9.233v29.613c0,6.24,3.826,9.732,10.315,9.732h13.892v-6.988H391.368c-2.079,0-3.161-.914-3.161-2.995v-27.95c0-3.494,2.163-3.743,5.075-3.743,3.161,0,5.075.416,5.075,3.743v17.635h7.487V275.924c0-7.32-6.988-9.233-12.561-9.233" transform="translate(-57.342 -4.756)" fill="#fff"/>
    <path id="Path_5" data-name="Path 5" d="M586.843,266.691c-5.823,0-12.561,2-12.561,9.233V315.27h7.4V277.339c0-3.494,2.246-3.743,5.157-3.743,3.078,0,4.991.416,4.991,3.743V315.27h7.487V275.924c0-7.32-6.987-9.233-12.478-9.233" transform="translate(-124.651 -4.756)" fill="#fff"/>
    <path id="Path_6" data-name="Path 6" d="M544.842,286.322a6.6,6.6,0,0,0,3.078-6.155v-4.742c0-6.322-4.076-8.734-11.4-8.734-7.237,0-11.146,2.246-11.146,8.734v4.409h7.238v-3.493c0-2.329,1.081-3,3.826-3,2.828,0,4.159.5,4.159,3v3.493c0,2.828-1.58,4.325-4.242,4.492-6.073.416-12.395,2.245-12.395,9.233v13.226c0,7.237,6.821,9.233,13.06,9.233,5.906,0,12.894-1.913,12.894-9.233V294.308c0-4.491-2.578-7.153-5.074-7.986m-2.412,19.049c0,3.327-1.913,3.743-5.407,3.743-3.327,0-5.574-.333-5.574-3.743v-10.4c0-3.411,2.246-3.743,5.574-3.743,3.494,0,5.407.415,5.407,3.743Z" transform="translate(-107.153 -4.756)" fill="#fff"/>
    <path id="Path_7" data-name="Path 7" d="M493.7,277.694a12.847,12.847,0,0,1-2.163-6.737v-3.244h-7.486v3.576a18.7,18.7,0,0,0,3.16,9.983l4.076,6.572a15.746,15.746,0,0,1,2.08,8.235v9.65c0,3.411-2.163,3.743-5.49,3.743-2.745,0-4.575-.415-4.575-3.743V291.668h-7.487v15.472c0,7.32,6.988,9.233,12.062,9.233,6.238,0,12.976-2,12.976-9.233V295.579a21.977,21.977,0,0,0-2.995-10.981Z" transform="translate(-90.41 -5.111)" fill="#fff"/>
  </g>
</svg>
